HIERARCHY
ROOT Hips
{
	OFFSET 0.000000 0.000000 0.000000
	CHANNELS 6 Xposition Yposition Zposition Zrotation Yrotation Xrotation 
	JOINT LHipJoint
	{
		OFFSET 0.000000 0.000000 0.000000
		CHANNELS 3 Zrotation Yrotation Xrotation
		JOINT LeftUpLeg
		{
			OFFSET 1.363060 -1.794630 0.839290
			CHANNELS 3 Zrotation Yrotation Xrotation
			JOINT LeftLeg
			{
				OFFSET 2.448110 -6.726130 0.000000
				CHANNELS 3 Zrotation Yrotation Xrotation
				JOINT LeftFoot
				{
					OFFSET 2.562200 -7.039590 0.000000
					CHANNELS 3 Zrotation Yrotation Xrotation
					JOINT LeftToeBase
					{
						OFFSET 0.157640 -0.433110 2.322550
						CHANNELS 3 Zrotation Yrotation Xrotation
						End Site
						{
							OFFSET 0.000000 0.000000 0.000000
						}
					}
				}
			}
		}
	}
	JOINT RHipJoint
	{
		OFFSET 0.000000 0.000000 0.000000
		CHANNELS 3 Zrotation Yrotation Xrotation
		JOINT RightUpLeg
		{
			OFFSET -1.305520 -1.794630 0.839290
			CHANNELS 3 Zrotation Yrotation Xrotation
			JOINT RightLeg
			{
				OFFSET -2.542530 -6.985550 0.000000
				CHANNELS 3 Zrotation Yrotation Xrotation
				JOINT RightFoot
				{
					OFFSET -2.568260 -7.056230 0.000000
					CHANNELS 3 Zrotation Yrotation Xrotation
					JOINT RightToeBase
					{
						OFFSET -0.164730 -0.452590 2.363150
						CHANNELS 3 Zrotation Yrotation Xrotation
						End Site
						{
							OFFSET 0.000000 0.000000 0.000000
						}
					}
				}
			}
		}
	}
}
MOTION
Frames: 11
Frame Time: 0.008333
-19.780101 16.169743 -0.254702 51.916165 82.838360 92.274991 -6.348039 0.351907 6.719788 -9.511690 -18.689191 -86.071156 0.224022 3.549999 59.593022 3.002514 11.237579 -9.286457 0.704200 -0.000000 -19.795100 13.316102 -2.909962 1.456567 -0.238890 -7.053886 -6.792748 1.318742 1.138592 -3.585840 -0.604431 -5.216645 9.159994 -1.933900 0.000000 -69.089300
-19.496179 16.232921 -0.243211 52.952904 82.842615 93.369568 -6.220126 0.629051 7.010067 -9.567173 -19.051674 -85.932363 -0.022439 3.385759 56.592500 2.780619 10.535370 -7.417499 1.115300 0.000000 -22.550200 13.570679 -3.087590 1.147880 -0.599236 -8.424392 -5.909391 1.279848 0.959567 -3.702827 -0.589723 -5.279531 12.271143 -2.176400 -0.000000 -65.709501
-19.212328 16.290798 -0.233818 54.044149 82.927139 94.488420 -6.129383 0.878002 7.255354 -9.614312 -19.301940 -85.641740 -0.254804 3.224914 53.679660 2.536578 9.847569 -5.388138 1.507600 -0.000001 -25.612800 13.771702 -3.236704 0.854896 -0.877823 -9.541179 -5.056787 1.219405 0.801974 -3.363998 -0.640792 -5.613043 14.445147 -2.433200 0.000000 -61.512300
-18.928415 16.342348 -0.226318 55.281914 83.092818 95.725654 -6.072746 1.097673 7.448341 -9.670262 -19.438819 -85.200073 -0.471458 3.070239 50.893259 2.280456 9.186771 -3.259106 1.864600 -0.000000 -28.742900 13.915184 -3.362949 0.597397 -1.052776 -10.307578 -4.205441 1.128421 0.665274 -2.613289 -0.743808 -6.268902 15.714719 -2.758400 0.000000 -57.128600
-18.644078 16.386489 -0.220340 56.725268 83.328132 97.138910 -6.044227 1.290009 7.584009 -9.759149 -19.465288 -84.603428 -0.672391 2.924378 48.273937 2.024776 8.565884 -1.118920 2.170300 0.000000 -31.687800 14.002389 -3.468126 0.386000 -1.111498 -10.684077 -3.359470 1.004581 0.543474 -1.446922 -0.884864 -7.202928 16.148124 -3.143100 0.000000 -53.090000
-18.358989 16.422311 -0.215765 58.402454 83.628657 98.755518 -6.040702 1.453419 7.656705 -9.888308 -19.375853 -83.855623 -0.856814 2.789912 45.870271 1.780692 7.986735 0.922583 2.409900 0.000000 -34.244800 14.030810 -3.555808 0.230439 -1.023525 -10.628347 -2.518845 0.847678 0.430125 0.118001 -1.057905 -8.362575 15.877582 -3.558000 0.000001 -49.815599
-18.073176 16.449003 -0.212496 60.332152 83.989912 100.591940 -6.060210 1.585868 7.663334 -10.055480 -19.164415 -82.965542 -1.023495 2.668994 43.733825 1.557838 7.445204 2.741571 2.571100 0.000000 -36.287200 13.999147 -3.628351 0.132539 -0.758788 -10.143182 -1.697492 0.664390 0.317982 2.077141 -1.256636 -9.652447 15.055321 -3.948400 -0.000000 -47.548700
-17.786691 16.465884 -0.210617 62.549609 84.407258 102.677701 -6.102162 1.685086 7.603401 -10.249394 -18.826928 -81.945940 -1.170674 2.563468 41.917068 1.363065 6.930610 4.208387 2.644300 -0.000000 -37.757400 13.908213 -3.688106 0.084872 -0.296302 -9.283712 -0.915776 0.468060 0.199503 4.425707 -1.470889 -10.951166 13.848139 -4.255500 0.000000 -46.407600
-17.499651 16.472083 -0.209658 65.078907 84.848286 105.028635 -6.159555 1.758027 7.488265 -10.474782 -18.386825 -80.807935 -1.299662 2.473732 40.453021 1.203430 6.447947 5.204720 2.631600 0.000000 -38.660000 13.775768 -3.731568 0.062256 0.314903 -8.235685 -0.249528 0.282749 0.064459 7.234186 -1.672022 -12.026053 12.350565 -4.379900 0.000000 -46.183100
-17.212195 16.467222 -0.209913 68.006436 85.308225 107.725773 -6.235125 1.801309 7.320407 -10.705262 -17.848325 -79.573727 -1.408366 2.401420 39.386689 1.079701 5.979829 5.621836 2.530299 0.000000 -39.014500 13.605815 -3.767965 0.050362 1.064740 -7.097718 0.304958 0.119586 -0.091908 10.418952 -1.845800 -12.822428 10.767524 -4.337400 0.000000 -46.962000
-16.924977 16.450698 -0.210837 71.339476 85.741600 110.774953 -6.320029 1.824884 7.117415 -10.946164 -17.257892 -78.260186 -1.500149 2.345550 38.725336 0.995524 5.540770 5.392502 2.354500 -0.000000 -38.877200 13.425270 -3.797702 0.022757 1.846086 -6.080152 0.680444 -0.007681 -0.275736 13.996768 -1.962106 -13.181263 9.160975 -4.099200 0.000000 -48.349000
